<svg xmlns="http://www.w3.org/2000/svg" viewBox="0 0 512 512">
  <defs>
    <linearGradient id="bg" x1="0" y1="0" x2="1" y2="1">
      <stop offset="0%" stop-color="#0a0a1a"/>
      <stop offset="100%" stop-color="#141428"/>
    </linearGradient>
    <linearGradient id="gold" x1="0" y1="0" x2="0" y2="1">
      <stop offset="0%" stop-color="#e8d5a3"/>
      <stop offset="100%" stop-color="#c9a96e"/>
    </linearGradient>
  </defs>
  <rect width="512" height="512" rx="108" fill="url(#bg)"/>
  <g transform="translate(256,58)" fill="none" stroke="url(#gold)" stroke-width="10" stroke-linecap="round" stroke-linejoin="round">
    <line x1="0" y1="0" x2="0" y2="20"/>
    <path d="M0,20 L-8,80 L-50,200 L-85,320 L-110,390 L110,390 L85,320 L50,200 L8,80 Z" fill="url(#gold)" fill-opacity="0.08"/>
    <path d="M0,20 L-8,80 L-50,200 L-85,320 L-110,390" stroke-width="11"/>
    <path d="M0,20 L8,80 L50,200 L85,320 L110,390" stroke-width="11"/>
    <line x1="-30" y1="140" x2="30" y2="140" stroke-width="8"/>
    <path d="M-50,200 Q0,185 50,200" stroke-width="9"/>
    <line x1="-85" y1="320" x2="85" y2="320" stroke-width="9"/>
    <path d="M-50,200 L-20,200" stroke-width="6" opacity="0.5"/>
    <path d="M50,200 L20,200" stroke-width="6" opacity="0.5"/>
    <path d="M-85,320 L-60,320" stroke-width="6" opacity="0.5"/>
    <path d="M85,320 L60,320" stroke-width="6" opacity="0.5"/>
  </g>
  <text x="256" y="480" text-anchor="middle" fill="#c9a96e" font-family="system-ui,sans-serif" font-size="34" font-weight="300" letter-spacing="6" opacity="0.7">PARIS</text>
</svg>
